<svg xmlns="http://www.w3.org/2000/svg" viewBox="0 0 279.52 82.12"><defs><style>.cls-1{fill:gold;}.cls-1,.cls-2{fill-rule:evenodd;}.cls-2{fill:#fff;}</style></defs><title>Asset 1</title><g id="Layer_2" data-name="Layer 2"><g id="Layer_1-2" data-name="Layer 1"><g id="_Group_" data-name="&lt;Group&gt;"><path id="_Compound_Path_" data-name="&lt;Compound Path&gt;" class="cls-1" d="M0,0H57.31V82.12H0V0ZM8.26,73.85H49V8.27H8.26V73.85Z"/><path id="_Path_" data-name="&lt;Path&gt;" class="cls-2" d="M95.38,36.84H91.84c-4.66-6.58-9.28-13.11-13.89-20.5h0v20.5H74V8.26h3.55c4.66,6.53,9.27,13,13.84,20.37h.08V8.26h3.92V36.84Z"/><path id="_Compound_Path_2" data-name="&lt;Compound Path&gt;" class="cls-2" d="M104.7,25.53c1.14-3.76,2.28-7.23,3.3-11.64h.08c1.14,4.41,2.16,7.88,3.23,11.64Zm1.87-17.27L96.7,36.84h4.25l2.48-7.8H112l2.24,7.8h5.47L110.66,8.26Z"/><polygon id="_Path_2" data-name="&lt;Path&gt;" class="cls-2" points="124.38 36.84 124.38 12.09 116.86 12.09 116.86 8.26 136.79 8.26 136.79 12.09 129.28 12.09 129.28 36.84 124.38 36.84 124.38 36.84"/><polygon id="_Path_3" data-name="&lt;Path&gt;" class="cls-2" points="138.38 8.26 143.24 8.26 143.24 36.84 138.38 36.84 138.38 8.26 138.38 8.26"/><path id="_Compound_Path_3" data-name="&lt;Compound Path&gt;" class="cls-2" d="M158.35,33.24c-5.11,0-6.91-5.63-6.91-11.11,0-5.27,2-10.29,6.91-10.29s6.89,5,6.89,10.29c0,5.47-1.79,11.11-6.89,11.11Zm0,4.08c7.47,0,12.12-6.65,12.12-15.19,0-8-5.14-14.37-12.12-14.37s-12.14,6.37-12.14,14.37c0,8.54,4.66,15.19,12.14,15.19Z"/><path id="_Path_4" data-name="&lt;Path&gt;" class="cls-2" d="M194.86,36.84h-3.55c-4.66-6.58-9.28-13.11-13.89-20.5h0v20.5h-3.91V8.26H177c4.65,6.53,9.27,13,13.83,20.37h.09V8.26h3.92V36.84Z"/><path id="_Compound_Path_4" data-name="&lt;Compound Path&gt;" class="cls-2" d="M204.17,25.53c1.15-3.76,2.28-7.23,3.31-11.64h.08c1.14,4.41,2.16,7.88,3.22,11.64ZM206,8.26l-9.88,28.59h4.25L202.9,29h8.62l2.25,7.8h5.47L210.13,8.26Z"/><polygon id="_Path_5" data-name="&lt;Path&gt;" class="cls-2" points="220.66 8.26 225.53 8.26 225.53 33 235.2 33 235.2 36.84 220.66 36.84 220.66 8.26 220.66 8.26"/><path id="_Path_6" data-name="&lt;Path&gt;" class="cls-2" d="M92.37,60.75v11.8a22.51,22.51,0,0,1-8.12,1.76c-8.41,0-13.72-6.54-13.72-14.95,0-7.8,5.31-14.62,13.88-14.62a12.25,12.25,0,0,1,6.94,2.21l-1.59,3.39a10.69,10.69,0,0,0-5.23-1.51c-5.22,0-8.78,4.12-8.78,10.62,0,6.77,4.09,10.77,8.29,10.77a7.16,7.16,0,0,0,3.43-.69V60.75Z"/><polygon id="_Path_7" data-name="&lt;Path&gt;" class="cls-2" points="109.9 49.08 101.72 49.08 101.72 56.91 109.72 56.91 109.72 60.75 101.72 60.75 101.72 69.98 111.36 69.98 111.36 73.82 96.82 73.82 96.82 45.23 109.9 45.23 109.9 49.08 109.9 49.08"/><path id="_Compound_Path_5" data-name="&lt;Compound Path&gt;" class="cls-2" d="M125,70.22c-5.11,0-6.91-5.63-6.91-11.11,0-5.26,2-10.29,6.91-10.29s6.89,5,6.89,10.29c0,5.48-1.8,11.11-6.89,11.11Zm0,4.08c7.47,0,12.12-6.66,12.12-15.19,0-8-5.14-14.38-12.12-14.38s-12.13,6.37-12.13,14.38c0,8.54,4.65,15.19,12.13,15.19Z"/><path id="_Path_8" data-name="&lt;Path&gt;" class="cls-2" d="M160.64,60.75v11.8a22.49,22.49,0,0,1-8.13,1.76c-8.41,0-13.72-6.54-13.72-14.95,0-7.8,5.31-14.62,13.89-14.62a12.21,12.21,0,0,1,6.94,2.21L158,50.34a10.63,10.63,0,0,0-5.22-1.51c-5.23,0-8.79,4.12-8.79,10.62,0,6.77,4.09,10.77,8.29,10.77a7.12,7.12,0,0,0,3.43-.69V60.75Z"/><path id="_Compound_Path_6" data-name="&lt;Compound Path&gt;" class="cls-2" d="M170,49.08h2.16c2.89,0,4.53,1.67,4.53,4.61,0,3.83-2.32,5.55-4.65,5.67-.49,0-1.64.09-2,.13V49.08Zm12.41,24.74L176.69,62a9.63,9.63,0,0,0,5-8.5c0-5.56-3.4-8.25-8.87-8.25h-7.63V73.82H170V63h2.2l4.61,10.78Z"/><path id="_Compound_Path_7" data-name="&lt;Compound Path&gt;" class="cls-2" d="M190.54,62.51c1.14-3.76,2.28-7.23,3.31-11.64h.08c1.14,4.41,2.16,7.88,3.22,11.64Zm1.88-17.28-9.88,28.59h4.25l2.49-7.8h8.62l2.23,7.8h5.48L196.5,45.23Z"/><path id="_Compound_Path_8" data-name="&lt;Compound Path&gt;" class="cls-2" d="M214.79,45.23h-7.64V73.82h4.9V63h2.2a9.35,9.35,0,0,0,9.4-9.56c0-5.56-3.39-8.25-8.87-8.25Zm-.69,14.13c-.51,0-1.71.08-2,.12V49.08h2.2c2.86,0,4.5,1.67,4.5,4.61,0,3.83-2.32,5.55-4.65,5.67Z"/><polygon id="_Path_9" data-name="&lt;Path&gt;" class="cls-2" points="246.35 73.82 241.46 73.82 241.46 60.06 231.28 60.06 231.28 73.82 226.44 73.82 226.44 45.23 231.28 45.23 231.28 56.22 241.46 56.22 241.46 45.31 246.35 45.31 246.35 73.82 246.35 73.82"/><polygon id="_Path_10" data-name="&lt;Path&gt;" class="cls-2" points="251.05 45.23 255.92 45.23 255.92 73.82 251.05 73.82 251.05 45.23 251.05 45.23"/><path id="_Path_11" data-name="&lt;Path&gt;" class="cls-2" d="M278,50.42a10.26,10.26,0,0,0-5-1.59c-5,0-8.61,4.12-8.61,10.62,0,6.77,4,10.77,8.74,10.77a9.24,9.24,0,0,0,4.9-1.43l1.35,3.56a12.47,12.47,0,0,1-6.45,2c-8.42,0-13.73-6.54-13.73-14.95,0-7.8,5.27-14.62,13.8-14.62a12.12,12.12,0,0,1,6.58,2.21L278,50.42Z"/></g></g></g></svg>